<?xml version="1.0" encoding="utf-8"?>
<!-- Generator: Adobe Illustrator 24.1.1, SVG Export Plug-In . SVG Version: 6.00 Build 0)  -->
<svg version="1.1" id="Layer_1" xmlns="http://www.w3.org/2000/svg" xmlns:xlink="http://www.w3.org/1999/xlink" x="0px" y="0px"
	 viewBox="0 0 500 382" style="enable-background:new 0 0 500 382;" xml:space="preserve">
<style type="text/css">
	.st0{fill:url(#SVGID_1_);}
	.st1{fill:#9D4BFF;}
	.st2{fill:#F2293A;}
	.st3{opacity:0.1;enable-background:new    ;}
	.st4{fill:#FFFFFF;}
	.st5{fill:#466C8C;stroke:#000000;stroke-width:0.75;stroke-miterlimit:10;}
	.st6{fill:#FFFFFF;stroke:#000000;stroke-width:0.91;stroke-linecap:round;stroke-linejoin:round;}
	.st7{fill:none;stroke:#000000;stroke-width:0.68;stroke-linecap:round;stroke-linejoin:round;}
	.st8{fill:none;stroke:#FFFFFF;stroke-width:0.68;stroke-linecap:round;stroke-linejoin:round;}
	.st9{opacity:0.5;}
	.st10{fill:none;stroke:#000000;stroke-width:0.91;stroke-linecap:round;stroke-linejoin:round;}
	.st11{opacity:0.8;}
	.st12{opacity:0.4;}
	.st13{opacity:0.4;fill:#0FF2B2;enable-background:new    ;}
	.st14{fill:#9D4BFF;stroke:#000000;stroke-width:0.91;stroke-linecap:round;stroke-linejoin:round;}
	.st15{fill:#0FF2B2;}
	.st16{fill:#161C40;}
	.st17{fill:#466C8C;}
	.st18{fill:url(#SVGID_2_);}
</style>
<linearGradient id="SVGID_1_" gradientUnits="userSpaceOnUse" x1="-4.139424e-03" y1="187.0103" x2="500.0944" y2="187.0103">
	<stop  offset="0" style="stop-color:#F2293A"/>
	<stop  offset="0.9723" style="stop-color:#4B6A8A"/>
	<stop  offset="1" style="stop-color:#466C8C"/>
</linearGradient>
<path class="st0" d="M412.5,57.1c0,0-38.8-51.9-103.2-55.6S209.1,41.7,182.8,74.6s-106.1,14-154.4,64.5s-24.9,79.7-3.6,109
	s41.7,33.7,41.7,57.8c0,24.1,11.7,56.3,57.8,63.6c46.1,7.3,93.6-37.3,126.6-20.4c32.9,16.8,88.2,30,122,20.4
	c33.8-9.5,23.6-44.6,60.1-56.3c36.5-11.7,71.7-48.3,66.6-87.8s-34.4-46.8-46.8-84.9C440.2,102.5,422.7,73.2,412.5,57.1z"/>
<path d="M306.2,381.6c83,0,150.3-1.7,150.3-3.8c0-2.1-67.3-3.8-150.3-3.8s-150.3,1.7-150.3,3.8C155.9,379.9,223.2,381.6,306.2,381.6
	z"/>
<path class="st1" d="M337.6,21.1H196.4c-4.4,0-8,3.6-8,8v55.2c0,4.4,3.6,8,8,8h141.2c4.4,0,8-3.6,8-8V29
	C345.6,24.6,342,21.1,337.6,21.1z"/>
<path class="st1" d="M188.4,79.7v25.7l14.3-16.5"/>
<path class="st2" d="M337.6,21.1H196.4c-4.4,0-8,3.6-8,8v50.7v4.5v21.1l11.4-13.2h137.8c4.4,0,8-3.6,8-8V29
	C345.6,24.6,342,21.1,337.6,21.1z"/>
<path d="M309.3,60.1H207.9c-0.4,0-0.7-0.1-1.1-0.2c-0.3-0.1-0.7-0.4-0.9-0.6c-0.3-0.3-0.5-0.6-0.6-0.9c-0.1-0.3-0.2-0.7-0.2-1.1l0,0
	c0-0.4,0.1-0.7,0.2-1.1c0.1-0.3,0.4-0.7,0.6-0.9c0.3-0.3,0.6-0.5,0.9-0.6c0.3-0.1,0.7-0.2,1.1-0.2h101.5c0.8,0,1.5,0.3,2,0.8
	s0.8,1.3,0.8,2l0,0c0,0.8-0.3,1.5-0.8,2C310.8,59.8,310.1,60.1,309.3,60.1L309.3,60.1z"/>
<path d="M309.3,73.1H207.9c-0.4,0-0.7-0.1-1.1-0.2c-0.3-0.1-0.7-0.4-0.9-0.6c-0.3-0.3-0.5-0.6-0.6-0.9s-0.2-0.7-0.2-1.1l0,0
	c0-0.8,0.3-1.5,0.8-2s1.3-0.8,2-0.8h101.5c0.8,0,1.5,0.3,2,0.8s0.8,1.3,0.8,2l0,0c0,0.8-0.3,1.5-0.8,2
	C310.8,72.8,310.1,73.1,309.3,73.1L309.3,73.1z"/>
<path d="M213.5,47.1c5.6,0,10.2-4.6,10.2-10.2s-4.6-10.2-10.2-10.2c-5.6,0-10.2,4.6-10.2,10.2S207.9,47.1,213.5,47.1z"/>
<path class="st1" d="M337.6,117.3H196.4c-4.4,0-8,3.6-8,8v55.2c0,4.4,3.6,8,8,8h141.2c4.4,0,8-3.6,8-8v-55.2
	C345.6,120.9,342,117.3,337.6,117.3z"/>
<path class="st2" d="M337.6,117.3H196.4c-4.4,0-8,3.6-8,8v55.2c0,4.4,3.6,8,8,8h141.2c4.4,0,8-3.6,8-8v-55.2
	C345.6,120.9,342,117.3,337.6,117.3z"/>
<path class="st1" d="M188.4,176v25.7l14.3-16.5"/>
<path class="st3" d="M188.4,176v25.7l14.3-16.5"/>
<path d="M309.3,156.4H207.9c-0.4,0-0.7-0.1-1.1-0.2c-0.3-0.1-0.7-0.4-0.9-0.6c-0.3-0.3-0.5-0.6-0.6-0.9c-0.1-0.3-0.2-0.7-0.2-1.1
	l0,0c0-0.4,0.1-0.7,0.2-1.1c0.1-0.3,0.4-0.7,0.6-0.9c0.3-0.3,0.6-0.5,0.9-0.6c0.3-0.1,0.7-0.2,1.1-0.2h101.5c0.8,0,1.5,0.3,2,0.8
	s0.8,1.3,0.8,2l0,0c0,0.8-0.3,1.5-0.8,2C310.8,156.1,310.1,156.4,309.3,156.4L309.3,156.4z"/>
<path class="st4" d="M309.3,169.4H207.9c-0.4,0-0.7-0.1-1.1-0.2c-0.3-0.1-0.7-0.4-0.9-0.6c-0.3-0.3-0.5-0.6-0.6-0.9
	c-0.1-0.3-0.2-0.7-0.2-1.1l0,0c0-0.4,0.1-0.7,0.2-1.1c0.1-0.3,0.4-0.7,0.6-0.9c0.3-0.3,0.6-0.5,0.9-0.6c0.3-0.1,0.7-0.2,1.1-0.2
	h101.5c0.8,0,1.5,0.3,2,0.8s0.8,1.3,0.8,2l0,0c0,0.8-0.3,1.5-0.8,2C310.8,169.1,310.1,169.4,309.3,169.4L309.3,169.4z"/>
<path d="M213.5,143.3c5.6,0,10.2-4.6,10.2-10.2c0-5.6-4.6-10.2-10.2-10.2c-5.6,0-10.2,4.6-10.2,10.2
	C203.3,138.8,207.9,143.3,213.5,143.3z"/>
<path d="M79.2,258.3c-0.1,0-0.6-7.5-0.6-8c0.3-5.6,4.1-16.2,10.2-17.8c1-0.2,2.1-0.3,3.1-0.1s2,0.6,2.8,1.2c0.9,0.6,1.6,1.4,2.1,2.2
	c0.5,0.9,0.9,1.9,1,2.9c0.7,4.4-2.1,9-5,12C89.5,254.3,79.2,258.3,79.2,258.3z"/>
<path d="M71.4,229.3c-0.1,0,0.6-7.5,0.7-8c1.1-5.5,6.5-15.4,12.7-16c1-0.1,2.1,0,3.1,0.4c1,0.3,1.9,0.9,2.6,1.6
	c0.8,0.7,1.4,1.6,1.7,2.5c0.4,1,0.6,2,0.6,3c0,4.4-3.5,8.6-6.8,11.1C82.1,226.8,71.4,229.2,71.4,229.3z"/>
<path d="M69.4,195c-0.1,0,0.6-7.5,0.7-8c1.1-5.5,6.5-15.4,12.7-16c1-0.1,2.1,0,3.1,0.4c1,0.3,1.9,0.9,2.6,1.6
	c0.8,0.7,1.4,1.6,1.7,2.5c0.4,1,0.6,2,0.6,3c0,4.4-3.5,8.6-6.8,11.1C80.1,192.5,69.4,195,69.4,195z"/>
<path d="M65.9,162.7c-0.1,0,0.6-7.5,0.7-8c1.1-5.5,6.5-15.4,12.7-16c1-0.1,2.1,0,3.1,0.4c1,0.3,1.9,0.9,2.6,1.6s1.4,1.6,1.7,2.5
	s0.6,2,0.6,3c0,4.4-3.5,8.6-6.8,11.1C76.6,160.3,65.9,162.7,65.9,162.7z"/>
<path d="M55.6,136.8c-0.1,0-1.5-7.4-1.5-7.9c-0.4-5.6,2.2-16.5,8-18.8c1-0.4,2-0.5,3-0.4s2,0.4,3,0.9c0.9,0.5,1.7,1.2,2.4,2
	c0.6,0.8,1.1,1.8,1.3,2.8c1.2,4.2-1.1,9.2-3.6,12.5C65.3,131.6,55.6,136.8,55.6,136.8z"/>
<path d="M76.1,258.4c0.1,0-3.2-6.9-3.4-7.2c-3-4.7-11.5-12.1-17.5-10.6c-1,0.3-1.9,0.8-2.7,1.4c-0.8,0.7-1.4,1.5-1.9,2.4
	s-0.7,2-0.7,3s0.2,2.1,0.5,3c1.5,4.1,6.3,6.8,10.2,8C65.2,259.9,76.1,258.4,76.1,258.4z"/>
<path d="M69.8,225.4c0.1,0-4.2-6.3-4.5-6.7c-3.6-4.2-13.2-10.2-18.9-7.8c-0.9,0.4-1.8,1.1-2.5,1.8c-0.7,0.8-1.2,1.7-1.5,2.7
	s-0.4,2-0.3,3.1c0.1,1,0.5,2,1,2.9c2.1,3.9,7.2,5.8,11.3,6.4C59.2,228.5,69.8,225.4,69.8,225.4z"/>
<path d="M67.9,193c0.1,0-4.2-6.3-4.5-6.7c-3.6-4.2-13.2-10.2-18.9-7.8c-0.9,0.4-1.8,1.1-2.5,1.8c-0.7,0.8-1.2,1.7-1.5,2.7
	s-0.4,2-0.3,3.1c0.1,1,0.5,2,1,2.9c2.1,3.9,7.2,5.8,11.3,6.4C57.4,196.2,67.9,193,67.9,193z"/>
<path d="M64.8,163.3c0.1,0-4.2-6.3-4.5-6.7c-3.6-4.2-13.2-10.2-18.9-7.8c-0.9,0.4-1.8,1.1-2.5,1.8c-0.7,0.8-1.2,1.7-1.5,2.7
	s-0.4,2-0.3,3.1c0.1,1,0.5,2,1,2.9c2.1,3.9,7.2,5.8,11.3,6.4C54.3,166.5,64.8,163.3,64.8,163.3z"/>
<path d="M55.7,137.8c0.1,0-4.8-5.8-5.2-6.1c-4.1-3.8-14.2-8.7-19.7-5.7c-0.9,0.5-1.7,1.3-2.3,2.1c-0.6,0.9-1,1.8-1.2,2.8
	s-0.2,2.1,0.1,3.1c0.2,1,0.7,2,1.3,2.8c2.5,3.6,7.8,4.9,12,5.1C45.6,142,55.7,137.8,55.7,137.8z"/>
<path d="M42.6,116.6c0.1,0-1.6-7.4-1.8-7.8c-1.9-5.3-8.6-14.3-14.9-14.1c-1,0.1-2,0.3-3,0.8c-0.9,0.5-1.7,1.1-2.4,2
	c-0.6,0.8-1.1,1.8-1.4,2.8s-0.3,2.1-0.1,3.1c0.6,4.4,4.7,8,8.3,10C31.6,115.8,42.6,116.6,42.6,116.6z"/>
<path d="M89.8,297.3c0,0-1.3-2.9-3.3-8.1s-4.8-12.6-7.8-21.6c-1.5-4.5-3-9.5-4.4-14.7c-0.8-2.6-1.4-5.3-2.2-8.2l-0.9-4.2
	c-0.3-1.4-0.5-2.9-0.8-4.4c-0.9-6.1-1.5-12.2-1.8-18.3c-0.3-6.2-0.4-12.6-0.6-18.9c-0.1-6.3-0.3-12.6-0.8-18.8
	c-0.4-6-1.3-12-2.6-17.9c-1.3-5.5-3.1-10.9-5.4-16.1c-2-4.7-4.3-9.2-6.9-13.7c-2.3-4.1-4.7-7.7-6.8-10.9c-2.1-3.2-4.1-5.9-5.8-8
	c-3.3-4.4-5.4-6.8-5.4-6.8s2.2,2.3,5.6,6.7c1.7,2.2,3.8,4.8,6,8c2.3,3.2,4.7,6.7,7.1,10.8c2.7,4.4,5.1,8.9,7.2,13.5
	c2.4,5.2,4.3,10.6,5.8,16.1c1.4,5.9,2.4,12,3,18c0.6,6.2,1,12.5,1.2,18.9c0.2,6.3,0.5,12.6,1,18.8c0.4,6,1.1,12,2.2,17.9
	c0.3,1.4,0.5,2.8,0.9,4.2l1,4.2c0.7,2.6,1.5,5.4,2.3,7.9c1.6,5.2,3.2,10,4.7,14.4c3.1,8.9,6,16.2,8.1,21.3c2.1,5.1,3.5,8,3.5,8
	c0.1,0.3,0.2,0.6,0.3,0.9c0,0.3,0,0.6-0.1,0.9s-0.2,0.6-0.4,0.8c-0.2,0.2-0.4,0.4-0.7,0.5c-0.3,0.1-0.6,0.2-0.9,0.2s-0.6,0-0.9-0.2
	c-0.3-0.1-0.5-0.3-0.7-0.5C90.1,297.9,90,297.6,89.8,297.3L89.8,297.3L89.8,297.3z"/>
<path d="M118.1,250.6c-0.1,0,1.6-7.4,1.7-7.9c1.9-5.3,8.5-14.3,14.8-14.2c1,0.1,2.1,0.3,3,0.8s1.7,1.1,2.4,1.9
	c0.6,0.8,1.1,1.7,1.4,2.8c0.3,1,0.3,2.1,0.1,3.1c-0.6,4.4-4.6,8-8.2,10.1C129,249.7,118.1,250.6,118.1,250.6z"/>
<path d="M118.8,220.6c-0.1,0,2.7-7.1,2.9-7.5c2.6-4.9,10.6-12.9,16.8-11.8c1,0.2,2,0.6,2.8,1.2s1.5,1.4,2.1,2.3
	c0.5,0.9,0.8,1.9,1,2.9c0.1,1,0,2.1-0.3,3.1c-1.2,4.2-5.8,7.2-9.6,8.7C129.7,221.3,118.8,220.6,118.8,220.6z"/>
<path d="M126.6,187.1c-0.1,0,2.7-7.1,2.9-7.5c2.6-4.9,10.6-12.9,16.8-11.8c1,0.2,2,0.6,2.8,1.2c0.8,0.6,1.5,1.4,2.1,2.3
	c0.5,0.9,0.8,1.9,1,2.9c0.1,1,0,2.1-0.3,3.1c-1.2,4.2-5.8,7.2-9.6,8.7C137.6,187.9,126.6,187.1,126.6,187.1z"/>
<path d="M132.5,155.3c-0.1,0,2.7-7.1,2.9-7.5c2.6-4.9,10.6-12.9,16.8-11.8c1,0.2,2,0.6,2.8,1.2c0.8,0.6,1.5,1.4,2.1,2.3
	c0.5,0.9,0.8,1.9,1,2.9c0.1,1,0,2.1-0.3,3.1c-1.2,4.2-5.8,7.2-9.6,8.7C143.4,156,132.5,155.3,132.5,155.3z"/>
<path d="M130,127.4c-0.1,0,0.7-7.5,0.8-8c1.2-5.4,6.8-15.2,13.1-15.8c1-0.1,2.1,0.1,3,0.5c1,0.4,1.9,0.9,2.6,1.7
	c0.7,0.7,1.3,1.6,1.7,2.6s0.5,2,0.5,3c0,4.4-3.6,8.5-7,11C140.7,125.3,130,127.4,130,127.4z"/>
<path d="M115,249.8c0.1,0-1.1-7.5-1.2-7.9c-1.5-5.4-7.6-14.9-13.8-15.1c-1,0-2.1,0.2-3,0.6c-1,0.4-1.8,1-2.5,1.8s-1.2,1.7-1.6,2.7
	c-0.3,1-0.4,2-0.3,3.1c0.3,4.4,4.1,8.3,7.5,10.6C104.2,248.2,115,249.8,115,249.8z"/>
<path d="M118.3,216.4c0.1,0-2.2-7.2-2.4-7.7c-2.3-5.1-9.7-13.6-16-12.8c-1,0.1-2,0.5-2.9,1.1s-1.6,1.3-2.2,2.1
	c-0.6,0.9-1,1.8-1.2,2.9c-0.2,1-0.1,2.1,0.1,3.1c0.9,4.3,5.3,7.6,9.1,9.3C107.4,216.4,118.3,216.4,118.3,216.4z"/>
<path d="M125.8,184.8c0.1,0-2.2-7.2-2.4-7.7c-2.3-5.1-9.7-13.6-16-12.8c-1,0.1-2,0.5-2.9,1.1s-1.6,1.3-2.2,2.1
	c-0.6,0.9-1,1.8-1.1,2.9c-0.2,1-0.1,2.1,0.1,3.1c0.9,4.3,5.3,7.6,9.1,9.3C114.8,184.9,125.8,184.8,125.8,184.8z"/>
<path d="M131.2,155.5c0.1,0-2.2-7.2-2.4-7.7c-2.3-5.1-9.7-13.6-16-12.8c-1,0.1-2,0.5-2.9,1.1s-1.6,1.3-2.2,2.1
	c-0.6,0.9-1,1.8-1.1,2.9c-0.2,1-0.1,2.1,0.1,3.1c0.9,4.3,5.3,7.6,9.1,9.3C120.3,155.5,131.2,155.5,131.2,155.5z"/>
<path d="M129.8,128.4c0.1,0-3-6.9-3.2-7.4c-2.8-4.8-11.2-12.4-17.3-11c-1,0.3-1.9,0.7-2.8,1.4c-0.8,0.6-1.5,1.5-2,2.4
	s-0.8,1.9-0.8,3c-0.1,1,0.1,2.1,0.5,3c1.4,4.2,6.1,7,10,8.3C118.9,129.6,129.7,128.4,129.8,128.4z"/>
<path d="M123.2,104.4c0.1,0,0.5-7.5,0.5-8c-0.3-5.6-4.2-16.2-10.2-17.7c-1-0.2-2.1-0.3-3.1-0.1c-1,0.2-2,0.6-2.8,1.2
	s-1.6,1.4-2.1,2.3s-0.9,1.9-1,2.9c-0.7,4.4,2.2,9,5.1,12C112.9,100.5,123.2,104.4,123.2,104.4z"/>
<path d="M117.1,291c0,0-0.4-3.2-0.9-8.7s-1-13.4-1.3-23c-0.1-4.8-0.2-9.9-0.1-15.4c0-2.7,0.1-5.5,0.2-8.4l0.3-4.3
	c0.1-1.4,0.3-2.9,0.5-4.4c0.8-6.1,2-12.1,3.5-18c1.5-6,3.2-12.2,4.8-18.3c1.6-6.1,3.3-12.2,4.5-18.2c1.3-5.9,2.2-11.9,2.6-17.9
	c0.3-5.6,0.1-11.3-0.6-16.9c-0.6-5-1.5-10.1-2.7-15c-1-4.6-2.3-8.8-3.4-12.4c-1.1-3.7-2.3-6.8-3.3-9.4c-2-5.2-3.3-8-3.3-8
	s1.4,2.8,3.5,8c1,2.6,2.2,5.7,3.5,9.3s2.6,7.8,3.7,12.4c1.3,4.9,2.3,10,3,15c0.8,5.7,1.1,11.4,1,17.1c-0.3,6.1-1.1,12.2-2.2,18.2
	c-1.2,6.1-2.6,12.3-4.2,18.4c-1.5,6.1-3.1,12.2-4.4,18.3c-1.3,5.9-2.3,11.8-3,17.8c-0.1,1.5-0.3,2.9-0.4,4.3l-0.2,4.3
	c0,2.7-0.1,5.6,0,8.3c0,5.4,0.2,10.5,0.4,15.2c0.4,9.4,1.2,17.2,1.8,22.7c0.6,5.5,1,8.5,1,8.5c0.1,0.3,0.1,0.6,0,0.9
	s-0.2,0.6-0.3,0.8c-0.2,0.3-0.4,0.5-0.6,0.6c-0.3,0.2-0.5,0.3-0.8,0.3s-0.6,0-0.9-0.1s-0.6-0.2-0.8-0.4c-0.2-0.2-0.4-0.4-0.6-0.7
	c-0.1-0.3-0.2-0.6-0.2-0.9L117.1,291L117.1,291z"/>
<path d="M131,370.5H80.1l-14.3-83.4h79.6L131,370.5z"/>
<path class="st5" d="M220.7,378.4c61.2,0,110.7-49.6,110.7-110.7c0-61.2-49.6-110.7-110.7-110.7C159.5,157,110,206.6,110,267.7
	S159.6,378.4,220.7,378.4z"/>
<path class="st2" d="M191.4,340.5c-9.4-3.5-18-8.7-25.3-15.6c-7.4-7.1-13.1-15.7-16.7-25.3c-4.1-10.7-6.2-22.1-6-33.6
	c-0.1-9.8,1.7-19.5,5.1-28.7c3.1-8.4,7.8-16.2,13.8-22.9c11.8-12.9,27.1-22.2,44-26.7c8.3-2.2,16.9-3.4,25.5-3.4
	c7.1,0,14.2,0.8,21.2,2.5c6.7,1.7,13.1,4.3,19,7.9c5.8,3.5,11.1,7.9,15.5,13.1c4.6,5.6,8.2,12,10.4,18.9c2.6,7.8,3.9,16.1,3.8,24.3
	c-0.1,15.9-5.8,31.3-16.1,43.4c-4.4,5.1-9.7,9.4-15.6,12.7c-5.1,3-10.8,4.6-16.7,4.7c-4,0-8-1.3-11.2-3.7c-1.6-1.2-3-2.8-3.9-4.6
	c-0.9-1.8-1.4-3.8-1.4-5.8c-6.9,9.7-16.2,14.5-27.9,14.5c-9.5,0-17.2-3.3-22.9-9.8s-8.5-14.5-8.5-24.1c0-7.2,1.3-14.4,3.7-21.2
	c2.4-6.9,5.8-13.4,10.1-19.2s9.8-10.6,16.1-14c6.3-3.6,13.4-5.4,20.7-5.4c5-0.1,10,1.2,14.4,3.5c4.3,2.3,7.8,5.9,10,10.2l0.9-3
	c0.4-1.3,1.1-2.5,2.1-3.4c1-1,2.1-1.7,3.4-2.1c1.3-0.4,2.7-0.5,4-0.3s2.6,0.8,3.7,1.6c0.7,0.6,1.3,1.3,1.6,2.1
	c0.4,0.8,0.5,1.7,0.5,2.6c0,0.9-0.1,1.7-0.4,2.5l-14.8,49.6c-1.7,5.7-2.5,9.6-2.5,11.7c0,3.6,1.8,5.4,5.5,5.4c4.8,0,9.4-2.2,14-6.6
	c5-4.9,8.8-10.9,11.2-17.4c2.9-7.2,4.3-14.8,4.3-22.5c0.1-6.8-0.9-13.6-2.9-20.1c-1.7-5.6-4.4-10.9-8-15.5c-3.4-4.2-7.4-7.9-12-10.7
	c-4.6-2.9-9.6-5-14.8-6.4c-5.4-1.4-10.9-2.1-16.5-2c-7.1,0-14.1,1-20.9,2.9c-7,2-13.6,5-19.7,8.9c-6.2,3.9-11.7,8.6-16.6,14.1
	c-5,5.8-8.9,12.4-11.5,19.6c-2.9,7.8-4.3,16-4.3,24.3c-0.2,9.8,1.6,19.6,5.3,28.8c3.1,7.9,8,15,14.3,20.7
	c6.1,5.3,13.2,9.4,20.8,12.1c8.1,2.8,16.5,4.3,25.1,4.2c9.1,0,18.2-1.4,26.9-4.1c0.9-0.3,1.8-0.4,2.7-0.4s1.8,0.1,2.6,0.5
	c0.8,0.3,1.5,0.8,2.1,1.5c1.2,1.2,1.8,2.8,1.8,4.5c0.1,1.3-0.3,2.7-1.1,3.8c-0.8,1.1-1.9,1.8-3.3,2.1c-10.9,3.3-22.2,5.1-33.5,5.1
	C212.2,346.1,201.5,344.2,191.4,340.5z M229.4,292.7c4.5-3.3,7.9-7.9,9.6-13.2l9.6-33.8l-0.6-1.4c-0.6-1.1-1.4-2.2-2.2-3.1
	c-1.1-1.3-2.4-2.6-3.7-3.7c-1.7-1.4-3.7-2.5-5.8-3.2c-5.4-1.9-11.4-1.7-16.7,0.6c-2.9,1.2-5.5,3-7.8,5.1c-2.4,2.2-4.5,4.7-6.4,7.5
	s-3.5,5.8-4.8,9c-1.3,3.1-2.3,6.4-3,9.7c-0.7,3.2-1,6.4-1,9.6c0,2.1,0.1,4.1,0.4,6.2c0.2,1.8,0.6,3.6,1.2,5.4
	c0.5,1.6,1.2,3.1,2.2,4.5c0.9,1.3,1.9,2.4,3.2,3.3c1.3,1,2.8,1.7,4.4,2.1c1.8,0.5,3.8,0.8,5.7,0.7
	C219.2,298.1,224.8,296.2,229.4,292.7L229.4,292.7z"/>
<path class="st6" d="M371.3,174.5c0,0-3.6,6.7-4.1,7.7s-2.4,6-1.9,7.2s1.1,1.9,2.3,2.1c1.1,0.2,2.1,2.3,4,2.6
	c1.2,0.2,2.4,0.4,3.6,0.4c0.3,0.2,0.6,0.4,1,0.4c0.4,0.1,0.7,0,1.1-0.1c1.1-0.4,2.1-0.9,2.8-4.2c0.5-1.6,0.6-3.3,0.4-4.9l-0.4-6.5
	L371.3,174.5z"/>
<path class="st6" d="M392.2,355.2c0,0-5.1,8.4-5.1,10.4s7.1,5.7,10.1,7.1c3,1.3,8.4,2.4,12.8,3s13.5,2.4,10.8-1
	c-2.6-3.4-18.9-12.5-19.5-13.5c-0.8-1-1.8-1.9-2.8-2.7L392.2,355.2z"/>
<path class="st6" d="M400.2,368.4l1.8,2.7c1.9,2.9,4.6,5.4,7.7,7c4.8,2.6,12.2,5.6,18.7,3.8c10.6-2.9-16.1-19-16.1-19
	S402.8,369.5,400.2,368.4z"/>
<path class="st7" d="M403.3,369.7c2.9,4.4,7.3,7.6,12.5,9c8.7,2.5,11.2,1.9,13.1-0.6"/>
<path class="st7" d="M387.7,364.1c0,0,9.6,6.9,14.3,7"/>
<path d="M366.8,176.9c0,0,8.5,14.2,10.4,17.4c1.8,3.3,24.9,29.6,34,52.3s17.9,43.2,17.6,49.7c-0.4,6.6-30.4,62.1-30.4,62.1l-6.2-3.3
	c0,0,9.5-52.3,8.4-57.8s-34.7-60-34.7-60s-15.7-11-22.3-23.8"/>
<path d="M368,212.2c0,0-4.8,10.2-4.8,11.7s26.7,80.1,34.4,98c4.9,11.5,9.1,23.2,12.8,35.1c0,0,2.9,3.6,0.7,7.3
	c-2.2,3.7-11,6.2-12.8,2.9c-1.8-3.3-19.7-20.4-27.4-37.7c-7.7-17.2-18.7-46.5-24.9-57.4c-8.2-14-15.5-28.6-21.9-43.5
	c-8-19-16.3-39.6-16.3-39.6c10.9,0.9,21.8-0.3,32.2-3.6c16.8-5.5,24.1-16,24.1-16s4.3,10.9,5.4,13.1"/>
<path class="st8" d="M370.5,242.7l-8.4-21.9l9.4-8.1"/>
<path class="st8" d="M379.6,220.1l-17.5,0.7c0,0,0-6.7-3-11.1c-3-4.4-3.7-5.1-4-6.4c-0.2-1.2-0.2-2.5,0-3.7"/>
<path class="st8" d="M401.9,293.6c0,0,11.1,5.7,18.9,5.1"/>
<path class="st8" d="M403.9,296.9c0,0,7.7,6.4,14.4,8.1"/>
<path class="st8" d="M359.4,195.9c-0.3,1,1.3,5.7,2.4,8.1c1.1,2.4,4.4,4,4.4,5.7s-4.4,4.7-4.4,4.7"/>
<path class="st8" d="M330.5,204.6c0,0-2,6.7-5.4,9.4l-3.4,2.7"/>
<path class="st8" d="M317,203.3c0,0,5.7,18.9,14.1,33.3c8.4,14.5,27.7,45.8,28.3,51.9s0,12.1,4.7,15.2c4.7,3,4.4,4.4,5.1,8.4
	c0.6,2.9,1.5,5.7,2.7,8.4c0,0,13.5,22.8,18.2,31.3c3.4,5.9,7.3,11.5,11.7,16.8"/>
<path class="st6" d="M307.8,189.1c0,0,0.8,8.5,4.1,11.2c3.4,2.7,13.5,5.1,27.3,2.4c13.8-2.6,29-14.4,30.3-18.5s-5.5-14.7-5.5-14.7
	s-8,11.3-30.2,15C311.6,188.2,307.8,189.1,307.8,189.1z"/>
<path class="st4" d="M396.5,106.5c-5.5-3.6-48.3-36.9-52.3-38.4s-12,0-12,0s-24.8,3-30,5.1c-0.5,0.2-11.7,6.6-12,7
	c-4,3.3-21.6,11.4-26.4,21.6c-5.4,11.6,41.9,81.4,44.1,87.2c2.2,5.9,13.7,7.3,24.3,5.8s19.9-3.6,27.6-12.4c1.4-1.8,2.6-3.7,3.5-5.7
	c1.1-2.3,1.4-4.9,0.8-7.3c-2.7-11.4-9.7-44.4-14.4-66.1c7.7,5,23.7,15.1,33,18.6c12.4,4.8,21.9,1.5,21.9-2.6S402,110.2,396.5,106.5z
	"/>
<g class="st9">
	<path class="st1" d="M349.2,94.6c3.3,1.2,6.7,2,10.2,2.2c4.4,0,1.8,1.8,0,2.6s11.7-1.1,11.3,1.1c-0.4,2.2-9.9,6.6-9.9,6.6
		c6.4,3.6,13.5,5.9,20.9,6.6c12.8,1.5,4.8,9.1,4.8,9.1s-20.6-7.6-36.8-19.5L349.2,94.6z"/>
</g>
<g class="st9">
	<g class="st9">
		<path class="st1" d="M284.4,119.5c0,0-2.9,4.8-1.5,5.1c1.5,0.3,16.5-5.9,11.3-0.7c-5.1,5.1-11.3,5.1-8.8,6.6
			c2.6,1.5,9.1,1.5,7,2.9c-2.2,1.5,2.2,8,13.2,21.2s15.7,22.3,27.8,28.5c12.1,6.2,20.1,6.2,12.8,8c-7.3,1.8-15,2.9-15.4,6.2
			c0,0,0.4,2.6-4,4.4c-4.4,1.8-7,1.5-10.2,0c-3.3-1.5-4.4-1.5-5.1-3.3s-3.7-9.4-3.7-9.4l-5.2-11.2l-1.7-2.4l-1.5-1.1l-25.6-43.9
			L284.4,119.5z"/>
	</g>
</g>
<path class="st10" d="M396.5,106.5c-5.5-3.6-48.3-36.9-52.3-38.4s-12,0-12,0s-24.8,3-30,5.1c-0.5,0.2-11.7,6.6-12,7
	c-4,3.3-21.6,11.4-26.4,21.6c-5.4,11.6,41.9,81.4,44.1,87.2c2.2,5.9,13.7,7.3,24.3,5.8s19.9-3.6,27.6-12.4c1.4-1.8,2.6-3.7,3.5-5.7
	c1.1-2.3,1.4-4.9,0.8-7.3c-2.7-11.4-9.7-44.4-14.4-66.1c7.7,5,23.7,15.1,33,18.6c12.4,4.8,21.9,1.5,21.9-2.6S402,110.2,396.5,106.5z
	"/>
<path class="st4" d="M269.6,94.3c0,0-4.4,4.8-6.1,7c-9.2,11.8-38.3,49.5-38.6,52.5s1.1,5.1,8.2,7.8c7.1,2.7,54.8-45.1,54.8-45.1"/>
<g class="st9">
	<g class="st11">
		<path class="st1" d="M272.3,93.5l-35.1,49c0,0,3.6,4,8,8s12,6.6,6.2,6.2c-5.8-0.4-16.8-4.8-16.8-4.8s-3.3,2.6,0.7,5.1
			c4,2.6,4.8,0.7,16.5,6.6c11.7,5.8,30.4,9.6,30.4,9.6l-1.5,3.1L231,163.7c0,0-7.2-3.6-6.2-9.6s17.8-25.3,17.8-25.3l24.1-31.5
			C266.7,97.3,268.9,93.9,272.3,93.5z"/>
	</g>
</g>
<path class="st10" d="M269.6,94.3c0,0-4.4,4.8-6.1,7c-9.2,11.8-38.3,49.5-38.6,52.5s1.1,5.1,8.2,7.8c7.1,2.7,54.8-45.1,54.8-45.1"/>
<path class="st7" d="M366.1,92.2l-16.5,11.1c2.4-0.3,13.8-4.4,13.8-4.4"/>
<path class="st7" d="M365.5,98.5l3.7-0.7"/>
<path class="st10" d="M243.2,142.3c-2.5-0.1-5.1,0.4-7.4,1.4"/>
<path class="st7" d="M279.2,125.8c0,0,9.3-2.8,11.7-4.7"/>
<path class="st7" d="M293.2,120.1c0,0,1.5-1.3,2.1-1.3"/>
<path class="st10" d="M349.6,103.3l-1.5-15.5"/>
<path class="st4" d="M224.8,154.1c0,0-2.1,8.1,11.5,11.5c6.5,1.6,49.4,12,49.4,12s3.8-8.2,1.6-8.2c-2.2,0-41.7-26.3-41.7-26.3"/>
<g class="st9">
	<path class="st1" d="M272.3,93.5l-35.1,49c0,0,3.6,4,8,8s12,6.6,6.2,6.2c-5.8-0.4-16.8-4.8-16.8-4.8s-3.3,2.6,0.7,5.1
		c4,2.6,4.8,0.7,16.5,6.6c11.7,5.8,30.4,9.6,30.4,9.6l-1.3,3.2l-50-12.8c0,0-9.5-4.5-6.2-9.6c3.7-5.9,17.8-25.3,17.8-25.3l24.6-31.3
		c0.3-1.1,1-2.2,1.9-2.9C270,94,271.1,93.5,272.3,93.5L272.3,93.5z"/>
</g>
<path class="st10" d="M224.8,154.1c0,0-2.1,8.1,11.5,11.5c6.5,1.6,49.4,12,49.4,12s3.8-8.2,1.6-8.2c-2.2,0-41.7-26.3-41.7-26.3"/>
<path class="st6" d="M287.4,169.4c0,0,14.1,6.6,15.2,8.4c1.1,1.8,3.6,11.3,3.6,14.3c0,2.9-0.4,2.9-2.2,2.9c-1.8,0-6.6-7-7.7-8.4
	c-1.1-1.5-3.6-1.5-7-3.6c-0.9-0.6-1.7-1.4-2.4-2.3c-0.6-0.9-1-1.9-1.3-3L287.4,169.4z"/>
<path class="st10" d="M281.4,176.3l2.2-6.8"/>
<g class="st12">
	<path class="st1" d="M314.3,104.3c0,0-22.6-12.8-30.7-11.7c-8.1,1.2-15,2.3-15,2.3l15-10.5C291.1,87.9,301.9,95.9,314.3,104.3z"/>
</g>
<path class="st4" d="M388.1,118.2c0,0-3.6,12.4-5.1,19.7s-11.7,36.5-11.7,36.5l8.8,5.5c0,0,19.4-40.2,23-49s2.6-15.4-1.1-19"/>
<path class="st10" d="M388.1,118.2c0,0-3.6,12.4-5.1,19.7s-11.7,36.5-11.7,36.5l8.8,5.5c0,0,19.4-40.2,23-49s2.6-15.4-1.1-19"/>
<path d="M373,170.3c0.7,0,9,4.6,9,4.6L373,170.3z"/>
<path class="st4" d="M315.3,104.3c-2-0.3-12.8-7.4-20.2-13.1c-7.4-5.7-11.4-6.7-11.4-6.7l-5.1,3.4c-0.8-2.5-0.5-5.1,0.7-7.4
	c2-3.7,9.1-7.4,16.2-10.1s15.2-5.1,20.2-5.1s6.4,2,6.4,4.7s0,11.1-1.7,17.5C318.7,93.8,315.3,104.3,315.3,104.3z"/>
<g class="st9">
	<g class="st9">
		<path class="st1" d="M312.1,69.2c0,0-3.1,9.3-6.2,12.1c-2.4,2-5,3.8-7.8,5.3c0,0-1.9-6.5-6.5-6.5c-4.7,0-11.8,3.1-11.8,3.1
			s0-2.5,5.9-5.6l5.9-3.1l13.7-5.3H312.1z"/>
	</g>
</g>
<path class="st10" d="M315.3,104.3c-2-0.3-12.8-7.4-20.2-13.1c-7.4-5.7-11.4-6.7-11.4-6.7l-5.1,3.4c-0.8-2.5-0.5-5.1,0.7-7.4
	c2-3.7,9.1-7.4,16.2-10.1s15.2-5.1,20.2-5.1s6.4,2,6.4,4.7s0,11.1-1.7,17.5C318.7,93.8,315.3,104.3,315.3,104.3z"/>
<path class="st4" d="M285.4,61.5c4,4.3,6.8,9.6,8.1,15.4c2.1,9.5,15.9,20.6,19.2,20.6c3.3,0,3.1-16.3,2-21.1
	c-1.1-4.8-5.6-17.5-5.6-17.5S291.6,50.6,285.4,61.5z"/>
<g class="st9">
	<g class="st9">
		<path class="st1" d="M312.1,69.2c0,0-3.1,9.3-6.2,12.1c-2.4,2-5,3.8-7.8,5.3c0,0-1.9-6.5-6.5-6.5c-4.7,0-11.8,3.1-11.8,3.1
			s0-2.5,5.9-5.6l5.9-3.1l13.7-5.3H312.1z"/>
	</g>
</g>
<path class="st10" d="M285.4,61.5c4,4.3,6.8,9.6,8.1,15.4c2.1,9.5,15.9,20.6,19.2,20.6c3.3,0,3.1-16.3,2-21.1
	c-1.1-4.8-5.6-17.5-5.6-17.5S291.6,50.6,285.4,61.5z"/>
<path class="st4" d="M273.8,43.9c2.6,7,5.8,13.8,9.5,20.3c5.6,9.1,16.3,14.3,22.2,11.9s10-10.1,8.4-22c-0.3-2.6-2.6-3.7-3.4-6
	c-2.6-8.4-5.3-16.5-6.2-19.6c-1.2-4-10.7-7.9-20.6-5.2C273.8,26.1,272.2,34.4,273.8,43.9z"/>
<g class="st9">
	<path class="st1" d="M306.7,36.6c0,0-3.6,2.7-11.7,1.1c-8.1-1.6-13.7-1.2-13.4,0.9c0.3,2.1,0.9,5,0.9,5s-9.7-8.4-0.9-10.7
		c6.3-1.6,10,0.9,11.6,1.2C294.8,34.5,306.7,36.6,306.7,36.6z"/>
</g>
<path class="st10" d="M273.8,43.9c2.6,7,5.8,13.8,9.5,20.3c5.6,9.1,16.3,14.3,22.2,11.9s10-10.1,8.4-22c-0.3-2.6-2.6-3.7-3.4-6
	c-2.6-8.4-5.3-16.5-6.2-19.6c-1.2-4-10.7-7.9-20.6-5.2C273.8,26.1,272.2,34.4,273.8,43.9z"/>
<path class="st4" d="M280.9,57c0,0-6.4-2.8-6.7,0c-0.4,2.8,2.4,4.8,5.2,6c0.7,0.4,1.5,0.5,2.2,0.5c0.8-0.1,1.5-0.4,2.1-0.9"/>
<path class="st10" d="M280.9,57c0,0-6.4-2.8-6.7,0c-0.4,2.8,2.4,4.8,5.2,6c0.7,0.4,1.5,0.5,2.2,0.5c0.8-0.1,1.5-0.4,2.1-0.9"/>
<path class="st4" d="M306.9,41.3c0,0-7.1-1.7-4,7.7c0.6,1.9,4.7,4,4.7,4s-0.3,3-2,3.4"/>
<path class="st10" d="M306.9,41.3c0,0-7.1-1.7-4,7.7c0.6,1.9,4.7,4,4.7,4s-0.3,3-2,3.4"/>
<path class="st4" d="M301.9,63.2c0,0-5.1,1-7.1-1.3L301.9,63.2z"/>
<path class="st10" d="M301.9,63.2c0,0-5.1,1-7.1-1.3"/>
<path class="st4" d="M294.4,47.4c0,0-3.7-1.3-5.7,0.3c-1.1,0.8-1.9,1.8-2.4,3"/>
<path class="st10" d="M294.4,47.4c0,0-3.7-1.3-5.7,0.3c-1.1,0.8-1.9,1.8-2.4,3"/>
<path d="M294.1,55.6c0.6-0.3,0.7-1.4,0.2-2.5s-1.3-1.8-1.9-1.5s-0.7,1.4-0.2,2.5C292.6,55.2,293.5,55.9,294.1,55.6z"/>
<path d="M306.2,49.7c0.6-0.3,0.7-1.4,0.2-2.5s-1.3-1.8-1.9-1.5s-0.7,1.4-0.2,2.5C304.7,49.3,305.6,50,306.2,49.7z"/>
<path d="M279.1,58.6c0,0,4-2.9,3.3-5.5s-2.2-2.6-0.7-4c1.5-1.5,2.6-2.2,2.2-4.4s-6.2-5.9-4.4-8c1.8-2.2,1.1-4.8,16.1-1.1
	s24.5-2.2,20.1-7.7s-8-6.2-8-6.2s8.4-3.6,1.5-7.3c-7-3.7-22.7-3.6-31.5,3.3s-7,12.8-7,12.8s-4.8,0.7-5.1,8S279.1,58.6,279.1,58.6z"
	/>
<path class="st8" d="M279,33.6c0,0,1.2-3.7,7.4-3.7c6.2,0,11.8,5.3,20.2,3.4c8.4-1.9,3.7-6.8,3.7-6.8"/>
<path class="st8" d="M276.2,32.7c0,0,0.6-7.7,7.4-9.4c6.8-1.7,15.8,1.7,18.3,0.7"/>
<path class="st8" d="M272.8,33c0,0-3.7,0-4,5c-0.2,1.3,0,2.7,0.5,3.9s1.3,2.3,2.3,3.2"/>
<path class="st8" d="M276.2,36.1c-0.5,0.2-1,0.5-1.4,0.9s-0.7,0.9-0.9,1.4c-0.2,0.5-0.3,1.1-0.3,1.7c0,0.6,0.2,1.1,0.5,1.6"/>
<path class="st8" d="M273.5,46l1.6,2.2"/>
<path class="st13" d="M-608,325c0,0-38.8-51.9-103.2-55.6s-100.2,40.2-126.5,73.1s-106.1,13.9-154.4,64.4
	c-48.3,50.5-24.9,79.7-3.6,109c21.3,29.3,41.7,33.7,41.7,57.8s11.7,56.3,57.8,63.6s93.6-37.3,126.6-20.4c32.9,16.8,88.2,30,122,20.4
	c33.8-9.5,23.6-44.6,60.1-56.3s71.7-48.3,66.6-87.8s-34.4-46.8-46.8-84.9C-580.3,370.3-597.8,341.1-608,325z"/>
<path d="M-714.3,649.4c83,0,150.3-1.7,150.3-3.8s-67.3-3.8-150.3-3.8s-150.3,1.7-150.3,3.8S-797.4,649.4-714.3,649.4z"/>
<path class="st1" d="M-682.9,288.9h-141.2c-4.4,0-8,3.6-8,8v55.2c0,4.4,3.6,8,8,8h141.2c4.4,0,8-3.6,8-8v-55.2
	C-675,292.5-678.5,288.9-682.9,288.9z"/>
<path class="st3" d="M-682.9,288.9h-141.2c-4.4,0-8,3.6-8,8v55.2c0,4.4,3.6,8,8,8h141.2c4.4,0,8-3.6,8-8v-55.2
	C-675,292.5-678.5,288.9-682.9,288.9z"/>
<path class="st1" d="M-832.1,347.5v25.7l14.3-16.5"/>
<path class="st3" d="M-832.1,347.5v25.7l14.3-16.5"/>
<path class="st4" d="M-711.2,327.9h-101.5c-0.4,0-0.7-0.1-1.1-0.2c-0.3-0.1-0.7-0.4-0.9-0.6c-0.3-0.3-0.5-0.6-0.6-0.9
	s-0.2-0.7-0.2-1.1l0,0c0-0.4,0.1-0.7,0.2-1.1c0.1-0.3,0.4-0.7,0.6-0.9c0.3-0.3,0.6-0.5,0.9-0.6c0.3-0.1,0.7-0.2,1.1-0.2h101.5
	c0.8,0,1.5,0.3,2,0.8s0.8,1.3,0.8,2l0,0c0,0.8-0.3,1.5-0.8,2C-709.7,327.6-710.5,327.9-711.2,327.9L-711.2,327.9z"/>
<path class="st4" d="M-711.2,341h-101.5c-0.4,0-0.7-0.1-1.1-0.2c-0.3-0.1-0.7-0.4-0.9-0.6c-0.3-0.3-0.5-0.6-0.6-0.9
	s-0.2-0.7-0.2-1.1l0,0c0-0.8,0.3-1.5,0.8-2s1.3-0.8,2-0.8h101.5c0.8,0,1.5,0.3,2,0.8s0.8,1.3,0.8,2l0,0c0,0.8-0.3,1.5-0.8,2
	C-709.7,340.7-710.5,341-711.2,341L-711.2,341z"/>
<path class="st4" d="M-807,314.9c5.6,0,10.2-4.6,10.2-10.2s-4.6-10.2-10.2-10.2c-5.6,0-10.2,4.6-10.2,10.2S-812.6,314.9-807,314.9z"
	/>
<path class="st1" d="M-682.9,385.2h-141.2c-4.4,0-8,3.6-8,8v55.2c0,4.4,3.6,8,8,8h141.2c4.4,0,8-3.6,8-8v-55.2
	C-675,388.7-678.5,385.2-682.9,385.2z"/>
<path class="st3" d="M-682.9,385.2h-141.2c-4.4,0-8,3.6-8,8v55.2c0,4.4,3.6,8,8,8h141.2c4.4,0,8-3.6,8-8v-55.2
	C-675,388.7-678.5,385.2-682.9,385.2z"/>
<path class="st1" d="M-832.1,443.8v25.7l14.3-16.5"/>
<path class="st3" d="M-832.1,443.8v25.7l14.3-16.5"/>
<path class="st4" d="M-711.2,424.2h-101.5c-0.4,0-0.7-0.1-1.1-0.2c-0.3-0.1-0.7-0.4-0.9-0.6c-0.3-0.3-0.5-0.6-0.6-0.9
	s-0.2-0.7-0.2-1.1l0,0c0-0.4,0.1-0.7,0.2-1.1c0.1-0.3,0.4-0.7,0.6-0.9c0.3-0.3,0.6-0.5,0.9-0.6c0.3-0.1,0.7-0.2,1.1-0.2h101.5
	c0.8,0,1.5,0.3,2,0.8s0.8,1.3,0.8,2l0,0c0,0.8-0.3,1.5-0.8,2C-709.7,423.9-710.5,424.2-711.2,424.2L-711.2,424.2z"/>
<path class="st4" d="M-711.2,437.2h-101.5c-0.4,0-0.7-0.1-1.1-0.2c-0.3-0.1-0.7-0.4-0.9-0.6c-0.3-0.3-0.5-0.6-0.6-0.9
	s-0.2-0.7-0.2-1.1l0,0c0-0.4,0.1-0.7,0.2-1.1c0.1-0.3,0.4-0.7,0.6-0.9c0.3-0.3,0.6-0.5,0.9-0.6c0.3-0.1,0.7-0.2,1.1-0.2h101.5
	c0.8,0,1.5,0.3,2,0.8s0.8,1.3,0.8,2l0,0c0,0.8-0.3,1.5-0.8,2C-709.7,436.9-710.5,437.2-711.2,437.2L-711.2,437.2z"/>
<path class="st4" d="M-807,411.1c5.6,0,10.2-4.6,10.2-10.2s-4.6-10.2-10.2-10.2c-5.6,0-10.2,4.6-10.2,10.2
	C-817.2,406.6-812.6,411.1-807,411.1z"/>
<path d="M-941.3,526.1c-0.1,0-0.6-7.5-0.6-8c0.3-5.6,4.1-16.2,10.2-17.8c1-0.2,2.1-0.3,3.1-0.1c1,0.2,2,0.6,2.8,1.2
	c0.9,0.6,1.6,1.4,2.1,2.2s0.9,1.9,1,2.9c0.7,4.4-2.1,9-5,12C-931.1,522.1-941.3,526.1-941.3,526.1z"/>
<path d="M-949.2,497.1c-0.1,0,0.6-7.5,0.7-8c1.1-5.5,6.5-15.4,12.7-16c1-0.1,2.1,0,3.1,0.4c1,0.3,1.9,0.9,2.6,1.6
	c0.8,0.7,1.4,1.6,1.7,2.5c0.4,1,0.6,2,0.6,3c0,4.4-3.5,8.6-6.8,11.1C-938.5,494.7-949.2,497.1-949.2,497.1z"/>
<path d="M-951.2,462.8c-0.1,0,0.6-7.5,0.7-8c1.1-5.5,6.5-15.4,12.7-16c1-0.1,2.1,0,3.1,0.4c1,0.3,1.9,0.9,2.6,1.6
	c0.8,0.7,1.4,1.6,1.7,2.5c0.4,1,0.6,2,0.6,3c0,4.4-3.5,8.6-6.8,11.1C-940.5,460.4-951.2,462.8-951.2,462.8z"/>
<path d="M-954.6,430.5c-0.1,0,0.6-7.5,0.7-8c1.1-5.5,6.5-15.4,12.7-16c1-0.1,2.1,0,3.1,0.4c1,0.3,1.9,0.9,2.6,1.6
	c0.8,0.7,1.4,1.6,1.7,2.5c0.4,1,0.6,2,0.6,3c0,4.4-3.5,8.6-6.8,11.1C-943.9,428.1-954.6,430.5-954.6,430.5z"/>
<path d="M-964.9,404.6c-0.1,0-1.5-7.4-1.5-7.9c-0.4-5.6,2.2-16.5,8-18.8c1-0.4,2-0.5,3-0.4s2,0.4,3,0.9c0.9,0.5,1.7,1.2,2.4,2
	c0.6,0.8,1.1,1.8,1.3,2.8c1.2,4.2-1.1,9.2-3.6,12.5C-955.2,399.5-964.9,404.6-964.9,404.6z"/>
<path d="M-944.4,526.2c0.1,0-3.2-6.9-3.4-7.2c-3-4.7-11.5-12.1-17.5-10.6c-1,0.3-1.9,0.8-2.7,1.4c-0.8,0.7-1.4,1.5-1.9,2.4
	s-0.7,2-0.7,3s0.2,2.1,0.5,3c1.5,4.1,6.3,6.8,10.2,8C-955.3,527.7-944.5,526.2-944.4,526.2z"/>
<path d="M-950.8,493.2c0.1,0-4.2-6.3-4.5-6.7c-3.6-4.2-13.2-10.2-18.9-7.8c-0.9,0.4-1.8,1.1-2.5,1.8c-0.7,0.8-1.2,1.7-1.5,2.7
	s-0.4,2-0.3,3.1c0.1,1,0.5,2,1,2.9c2.1,3.9,7.2,5.8,11.3,6.4C-961.3,496.3-950.8,493.2-950.8,493.2z"/>
<path d="M-952.6,460.8c0.1,0-4.2-6.3-4.5-6.7c-3.6-4.2-13.2-10.2-18.9-7.8c-0.9,0.4-1.8,1.1-2.5,1.8c-0.7,0.8-1.2,1.7-1.5,2.7
	s-0.4,2-0.3,3.1c0.1,1,0.5,2,1,2.9c2.1,3.9,7.2,5.8,11.3,6.4C-963.1,464-952.6,460.8-952.6,460.8z"/>
<path d="M-955.7,431.1c0.1,0-4.2-6.3-4.5-6.7c-3.6-4.2-13.2-10.2-18.9-7.8c-0.9,0.4-1.8,1.1-2.5,1.8s-1.2,1.7-1.5,2.7
	s-0.4,2-0.3,3.1c0.1,1,0.5,2,1,2.9c2.1,3.9,7.2,5.8,11.3,6.4C-966.3,434.3-955.7,431.1-955.7,431.1z"/>
<path d="M-964.9,405.6c0.1,0-4.8-5.8-5.2-6.1c-4.1-3.8-14.2-8.7-19.7-5.7c-0.9,0.5-1.7,1.3-2.3,2.1c-0.6,0.9-1,1.8-1.2,2.8
	s-0.2,2.1,0.1,3.1c0.2,1,0.7,2,1.3,2.8c2.5,3.6,7.8,4.9,12,5.1C-975,409.9-964.9,405.6-964.9,405.6z"/>
<path d="M-978,384.5c0.1,0-1.6-7.4-1.8-7.8c-1.9-5.3-8.6-14.3-14.9-14.1c-1,0.1-2,0.3-3,0.8c-0.9,0.5-1.7,1.1-2.4,2
	c-0.6,0.8-1.1,1.8-1.4,2.8c-0.3,1-0.3,2.1-0.1,3.1c0.6,4.4,4.7,8,8.3,10C-988.9,383.6-978,384.5-978,384.5z"/>
<path d="M-930.8,565.1c0,0-1.3-2.9-3.3-8.1c-2-5.2-4.8-12.6-7.8-21.6c-1.5-4.5-3-9.5-4.4-14.7c-0.8-2.6-1.4-5.3-2.2-8.2l-0.9-4.2
	c-0.3-1.4-0.5-2.9-0.8-4.4c-0.9-6.1-1.5-12.2-1.8-18.3c-0.3-6.2-0.4-12.6-0.6-18.9c-0.1-6.3-0.3-12.6-0.8-18.8
	c-0.4-6-1.3-12-2.6-17.9c-1.3-5.5-3.1-10.9-5.4-16.1c-2-4.7-4.3-9.2-6.9-13.7c-2.3-4.1-4.7-7.7-6.8-10.9c-2.1-3.2-4.1-5.9-5.8-8
	c-3.3-4.4-5.4-6.8-5.4-6.8s2.2,2.3,5.6,6.7c1.7,2.2,3.8,4.8,6,8c2.3,3.2,4.7,6.7,7.1,10.8c2.7,4.4,5.1,8.9,7.2,13.5
	c2.4,5.2,4.3,10.6,5.8,16.1c1.4,5.9,2.4,12,3,18c0.6,6.2,1,12.5,1.2,18.9c0.2,6.3,0.5,12.6,1,18.8c0.4,6,1.1,12,2.2,17.9
	c0.3,1.4,0.5,2.8,0.9,4.2l1,4.2c0.7,2.6,1.5,5.4,2.3,7.9c1.6,5.2,3.2,10,4.7,14.4c3.1,8.9,6,16.2,8.1,21.3s3.5,8,3.5,8
	c0.1,0.3,0.2,0.6,0.3,0.9s0,0.6-0.1,0.9c-0.1,0.3-0.2,0.6-0.4,0.8s-0.4,0.4-0.7,0.5s-0.6,0.2-0.9,0.2c-0.3,0-0.6,0-0.9-0.2
	c-0.3-0.1-0.5-0.3-0.7-0.5C-930.4,565.7-930.6,565.4-930.8,565.1L-930.8,565.1L-930.8,565.1z"/>
<path d="M-902.5,518.5c-0.1,0,1.6-7.4,1.7-7.9c1.9-5.3,8.5-14.3,14.8-14.2c1,0.1,2,0.3,3,0.8c0.9,0.5,1.7,1.1,2.4,1.9
	c0.6,0.8,1.1,1.7,1.4,2.8c0.3,1,0.3,2.1,0.1,3.1c-0.6,4.4-4.6,8-8.2,10.1C-891.5,517.5-902.5,518.5-902.5,518.5z"/>
<path d="M-901.8,488.4c-0.1,0,2.7-7.1,2.9-7.5c2.6-4.9,10.6-12.9,16.8-11.8c1,0.2,2,0.6,2.8,1.2s1.5,1.4,2.1,2.3
	c0.5,0.9,0.8,1.9,1,2.9c0.1,1,0,2.1-0.3,3.1c-1.2,4.2-5.8,7.2-9.6,8.7C-890.8,489.1-901.8,488.4-901.8,488.4z"/>
<path d="M-893.9,454.9c-0.1,0,2.7-7.1,2.9-7.5c2.6-4.9,10.6-12.9,16.8-11.8c1,0.2,2,0.6,2.8,1.2s1.5,1.4,2.1,2.3
	c0.5,0.9,0.8,1.9,1,2.9c0.1,1,0,2.1-0.3,3.1c-1.2,4.2-5.8,7.2-9.6,8.7C-883,455.7-893.9,454.9-893.9,454.9z"/>
<path d="M-888.1,423.1c-0.1,0,2.7-7.1,2.9-7.5c2.6-4.9,10.6-12.9,16.8-11.8c1,0.2,2,0.6,2.8,1.2s1.5,1.4,2.1,2.3
	c0.5,0.9,0.8,1.9,1,2.9c0.1,1,0,2.1-0.3,3.1c-1.2,4.2-5.8,7.2-9.6,8.7C-877.1,423.8-888.1,423.1-888.1,423.1z"/>
<path d="M-890.6,395.3c-0.1,0,0.7-7.5,0.8-8c1.2-5.4,6.8-15.2,13.1-15.8c1-0.1,2.1,0.1,3,0.5c1,0.4,1.9,0.9,2.6,1.7
	c0.7,0.7,1.3,1.6,1.7,2.6s0.5,2,0.5,3c0,4.4-3.6,8.5-7,11C-879.8,393.1-890.6,395.3-890.6,395.3z"/>
<path d="M-905.5,517.6c0.1,0-1.1-7.5-1.2-7.9c-1.5-5.4-7.6-14.9-13.8-15.1c-1,0-2.1,0.2-3,0.6c-1,0.4-1.8,1-2.5,1.8
	s-1.2,1.7-1.6,2.7c-0.3,1-0.4,2-0.3,3.1c0.3,4.4,4.1,8.3,7.5,10.6C-916.4,516-905.5,517.6-905.5,517.6z"/>
<path d="M-902.2,484.2c0.1,0-2.2-7.2-2.4-7.7c-2.3-5.1-9.7-13.6-16-12.8c-1,0.1-2,0.5-2.9,1.1s-1.6,1.3-2.2,2.1
	c-0.6,0.9-1,1.8-1.2,2.9c-0.2,1-0.1,2.1,0.1,3.1c0.9,4.3,5.3,7.6,9.1,9.3C-913.2,484.2-902.2,484.2-902.2,484.2z"/>
<path d="M-894.8,452.7c0.1,0-2.2-7.2-2.4-7.7c-2.3-5.1-9.7-13.6-16-12.8c-1,0.1-2,0.5-2.9,1.1s-1.6,1.3-2.2,2.1
	c-0.6,0.9-1,1.8-1.1,2.9c-0.2,1-0.1,2.1,0.1,3.1c0.9,4.3,5.3,7.6,9.1,9.3C-905.7,452.7-894.8,452.7-894.8,452.7z"/>
<path d="M-889.3,423.3c0.1,0-2.2-7.2-2.4-7.7c-2.3-5.1-9.7-13.6-16-12.8c-1,0.1-2,0.5-2.9,1.1s-1.6,1.3-2.2,2.1
	c-0.6,0.9-1,1.8-1.1,2.9c-0.2,1-0.1,2.1,0.1,3.1c0.9,4.3,5.3,7.6,9.1,9.3C-900.3,423.3-889.3,423.3-889.3,423.3z"/>
<path d="M-890.8,396.2c0.1,0-3-6.9-3.2-7.4c-2.8-4.8-11.2-12.4-17.3-11c-1,0.3-1.9,0.7-2.8,1.4c-0.8,0.6-1.5,1.5-2,2.4
	s-0.8,1.9-0.8,3c-0.1,1,0.1,2.1,0.5,3c1.4,4.2,6.1,7,10,8.3C-901.7,397.4-890.8,396.2-890.8,396.2z"/>
<path d="M-897.4,372.2c0.1,0,0.5-7.5,0.5-8c-0.3-5.6-4.2-16.2-10.2-17.7c-1-0.2-2.1-0.3-3.1-0.1s-2,0.6-2.8,1.2s-1.6,1.4-2.1,2.3
	s-0.9,1.9-1,2.9c-0.7,4.4,2.2,9,5.1,12C-907.6,368.3-897.4,372.2-897.4,372.2z"/>
<path d="M-903.4,558.8c0,0-0.4-3.2-0.9-8.7s-1-13.4-1.3-23c-0.1-4.8-0.2-9.9-0.1-15.4c0-2.7,0.1-5.5,0.2-8.4l0.3-4.3
	c0.1-1.4,0.3-2.9,0.5-4.4c0.8-6.1,2-12.1,3.5-18c1.5-6,3.2-12.2,4.8-18.3c1.6-6.1,3.3-12.2,4.5-18.2c1.3-5.9,2.2-11.9,2.6-17.9
	c0.3-5.6,0.1-11.3-0.6-16.9c-0.6-5-1.5-10.1-2.7-15c-1-4.6-2.3-8.8-3.4-12.4c-1.1-3.7-2.3-6.8-3.3-9.4c-2-5.2-3.3-8-3.3-8
	s1.4,2.8,3.5,8c1,2.6,2.2,5.7,3.5,9.3c1.3,3.6,2.5,7.8,3.7,12.4c1.3,4.9,2.3,10,3,15c0.8,5.7,1.2,11.4,1,17.1
	c-0.3,6.1-1.1,12.2-2.2,18.2c-1.2,6.1-2.6,12.3-4.2,18.4c-1.5,6.1-3.1,12.2-4.4,18.3c-1.3,5.9-2.3,11.8-3,17.8
	c-0.1,1.5-0.3,2.9-0.4,4.3l-0.2,4.3c0,2.7-0.1,5.6,0,8.3c0,5.4,0.2,10.5,0.4,15.2c0.4,9.4,1.2,17.2,1.8,22.7s1,8.5,1,8.5
	c0.1,0.3,0.1,0.6,0,0.9s-0.2,0.6-0.3,0.8c-0.2,0.3-0.4,0.5-0.6,0.6c-0.3,0.2-0.5,0.3-0.8,0.3s-0.6,0-0.9-0.1
	c-0.3-0.1-0.6-0.2-0.8-0.4s-0.4-0.4-0.6-0.7C-903.2,559.4-903.3,559.1-903.4,558.8L-903.4,558.8L-903.4,558.8z"/>
<path d="M-889.5,638.3h-50.9l-14.3-83.4h79.6L-889.5,638.3z"/>
<path class="st14" d="M-799.8,646.2c61.2,0,110.7-49.6,110.7-110.7c0-61.2-49.6-110.7-110.7-110.7c-61.2,0-110.7,49.6-110.7,110.7
	S-861,646.2-799.8,646.2z"/>
<path d="M-829.1,608.3c-9.4-3.5-18-8.7-25.3-15.6c-7.4-7.1-13.1-15.7-16.7-25.3c-4.1-10.7-6.2-22.1-6-33.6
	c-0.1-9.8,1.7-19.5,5.1-28.7c3.1-8.4,7.8-16.2,13.8-22.9c11.8-12.9,27.1-22.2,44-26.7c8.3-2.2,16.9-3.4,25.5-3.4
	c7.1,0,14.2,0.8,21.2,2.5c6.7,1.7,13.1,4.3,19,7.9c5.8,3.5,11.1,7.9,15.5,13.1c4.6,5.6,8.2,12,10.4,18.9c2.6,7.8,3.9,16.1,3.8,24.3
	c-0.1,15.9-5.8,31.3-16.1,43.4c-4.4,5.1-9.7,9.4-15.6,12.7c-5.1,3-10.8,4.6-16.7,4.7c-4,0-8-1.3-11.2-3.7c-1.6-1.2-3-2.8-3.9-4.6
	s-1.4-3.8-1.4-5.8c-6.9,9.7-16.2,14.5-27.9,14.5c-9.5,0-17.2-3.3-22.9-9.8s-8.5-14.5-8.5-24.1c0-7.2,1.3-14.4,3.7-21.2
	c2.4-6.9,5.8-13.4,10.1-19.2c4.3-5.8,9.8-10.6,16.1-14c6.3-3.6,13.4-5.4,20.7-5.4c5-0.1,10,1.2,14.4,3.5c4.3,2.3,7.8,5.9,10,10.2
	l1-3c0.4-1.3,1.1-2.5,2.1-3.4c1-1,2.1-1.7,3.4-2.1c1.3-0.4,2.7-0.5,4-0.3s2.6,0.8,3.7,1.6c0.7,0.6,1.3,1.3,1.6,2.1
	c0.4,0.8,0.5,1.7,0.5,2.6s-0.1,1.7-0.4,2.5l-14.8,49.6c-1.7,5.7-2.5,9.6-2.5,11.7c0,3.6,1.8,5.4,5.5,5.4c4.8,0,9.4-2.2,14-6.6
	c5-4.9,8.8-10.9,11.2-17.5c2.9-7.2,4.3-14.8,4.3-22.5c0.1-6.8-0.9-13.6-2.9-20.1c-1.7-5.6-4.4-10.9-8-15.5c-3.4-4.2-7.4-7.9-12-10.7
	c-4.6-2.9-9.6-5-14.8-6.4c-5.4-1.4-10.9-2.1-16.5-2c-7.1,0-14.1,1-20.9,2.9c-7,2-13.6,5-19.7,8.9c-6.2,3.9-11.7,8.6-16.6,14.1
	c-5,5.8-8.9,12.4-11.5,19.6c-2.9,7.8-4.3,16-4.3,24.3c-0.2,9.8,1.6,19.6,5.3,28.8c3.1,7.9,8,15,14.3,20.7
	c6.1,5.3,13.2,9.4,20.8,12.1c8.1,2.8,16.5,4.3,25.1,4.2c9.1,0,18.2-1.4,26.9-4.1c0.9-0.3,1.8-0.4,2.7-0.4s1.8,0.1,2.6,0.5
	c0.8,0.3,1.5,0.8,2.1,1.5c1.2,1.2,1.8,2.8,1.8,4.5c0.1,1.3-0.3,2.7-1.1,3.8s-1.9,1.8-3.3,2.1c-10.9,3.3-22.2,5.1-33.5,5.1
	C-808.4,614-819.1,612.1-829.1,608.3z M-791.1,560.6c4.5-3.3,7.9-7.9,9.6-13.2l9.6-33.8l-0.6-1.4c-0.6-1.1-1.4-2.2-2.2-3.1
	c-1.1-1.3-2.4-2.6-3.7-3.7c-1.7-1.4-3.7-2.5-5.8-3.2c-5.4-1.9-11.4-1.7-16.7,0.6c-2.9,1.2-5.5,3-7.8,5.1c-2.4,2.2-4.5,4.7-6.4,7.5
	s-3.5,5.8-4.8,9c-1.3,3.1-2.3,6.4-3,9.7c-0.7,3.2-1,6.4-1,9.6c0,2.1,0.1,4.1,0.4,6.2c0.2,1.8,0.6,3.6,1.2,5.4
	c0.5,1.6,1.2,3.1,2.2,4.5c0.9,1.3,1.9,2.4,3.2,3.3c1.3,1,2.8,1.7,4.4,2.1c1.8,0.5,3.8,0.8,5.7,0.7
	C-801.3,565.9-795.7,564.1-791.1,560.6L-791.1,560.6z"/>
<path class="st6" d="M-649.2,442.3c0,0-3.6,6.7-4.1,7.7s-2.4,6-1.9,7.2s1.1,1.9,2.3,2.1c1.1,0.2,2.1,2.3,4,2.6
	c1.2,0.2,2.4,0.4,3.6,0.4c0.3,0.2,0.6,0.4,1,0.4c0.4,0.1,0.7,0,1.1-0.1c1.1-0.4,2.1-0.9,2.8-4.2c0.5-1.6,0.6-3.3,0.4-4.9l-0.4-6.5
	L-649.2,442.3z"/>
<path class="st6" d="M-628.4,623.1c0,0-5.1,8.4-5.1,10.4s7.1,5.7,10.1,7.1c3,1.3,8.4,2.4,12.8,3c4.4,0.6,13.5,2.4,10.8-1
	c-2.6-3.4-18.9-12.5-19.5-13.5c-0.8-1-1.8-1.9-2.8-2.7L-628.4,623.1z"/>
<path class="st6" d="M-620.3,636.2l1.8,2.7c1.9,2.9,4.6,5.4,7.7,7c4.8,2.6,12.2,5.6,18.7,3.8c10.6-2.9-16.1-19-16.1-19
	S-617.8,637.3-620.3,636.2z"/>
<path class="st7" d="M-617.3,637.5c2.9,4.4,7.3,7.6,12.5,9c8.7,2.5,11.2,1.9,13.1-0.6"/>
<path class="st7" d="M-632.8,631.9c0,0,9.6,6.9,14.3,7"/>
<path d="M-653.7,444.7c0,0,8.5,14.2,10.4,17.4c1.8,3.3,24.9,29.6,34,52.3s17.9,43.2,17.6,49.7s-30.4,62.1-30.4,62.1l-6.2-3.3
	c0,0,9.5-52.3,8.4-57.8s-34.7-60-34.7-60s-15.7-11-22.3-23.8"/>
<path d="M-652.5,480.1c0,0-4.8,10.2-4.8,11.7s26.7,80.1,34.4,98c4.9,11.5,9.1,23.2,12.8,35.1c0,0,2.9,3.6,0.7,7.3s-11,6.2-12.8,2.9
	s-19.7-20.4-27.4-37.7c-7.7-17.2-18.7-46.5-24.9-57.4c-8.2-14-15.5-28.6-21.9-43.5c-8-19-16.3-39.6-16.3-39.6
	c10.9,0.9,21.8-0.3,32.2-3.6c16.8-5.5,24.1-16,24.1-16s4.3,10.9,5.4,13.1"/>
<path class="st8" d="M-650,510.5l-8.4-21.9l9.4-8.1"/>
<path class="st8" d="M-640.9,488l-17.5,0.7c0,0,0-6.7-3-11.1s-3.7-5.1-4-6.4c-0.2-1.2-0.2-2.5,0-3.7"/>
<path class="st8" d="M-618.7,561.4c0,0,11.1,5.7,18.9,5.1"/>
<path class="st8" d="M-616.7,564.8c0,0,7.7,6.4,14.4,8.1"/>
<path class="st8" d="M-661.1,463.7c-0.3,1,1.3,5.7,2.4,8.1c1.1,2.4,4.4,4,4.4,5.7s-4.4,4.7-4.4,4.7"/>
<path class="st8" d="M-690.1,472.5c0,0-2,6.7-5.4,9.4l-3.4,2.7"/>
<path class="st8" d="M-703.6,471.1c0,0,5.7,18.9,14.1,33.3c8.4,14.5,27.7,45.8,28.3,51.9s0,12.1,4.7,15.2c4.7,3,4.4,4.4,5.1,8.4
	c0.6,2.9,1.5,5.7,2.7,8.4c0,0,13.5,22.8,18.2,31.3c3.4,5.9,7.3,11.5,11.7,16.8"/>
<path class="st6" d="M-712.8,456.9c0,0,0.8,8.5,4.1,11.2c3.4,2.7,13.5,5.1,27.3,2.4c13.8-2.6,29-14.4,30.3-18.5s-5.5-14.7-5.5-14.7
	s-8,11.3-30.2,15C-709,456-712.8,456.9-712.8,456.9z"/>
<path class="st4" d="M-624,374.3c-5.5-3.6-48.3-36.9-52.3-38.4s-12,0-12,0s-24.8,3-30,5.1c-0.5,0.2-11.7,6.6-12,7
	c-4,3.3-21.6,11.4-26.4,21.6c-5.4,11.6,41.9,81.4,44.1,87.2c2.2,5.9,13.7,7.3,24.3,5.8s19.9-3.6,27.6-12.4c1.4-1.8,2.6-3.7,3.5-5.7
	c1.1-2.3,1.4-4.9,0.8-7.3c-2.7-11.4-9.7-44.4-14.4-66.1c7.7,5,23.7,15.1,33,18.6c12.4,4.8,21.9,1.5,21.9-2.6
	C-615.9,383.1-618.5,378-624,374.3z"/>
<g class="st9">
	<path class="st1" d="M-671.4,362.4c3.3,1.2,6.7,2,10.2,2.2c4.4,0,1.8,1.8,0,2.6c-1.8,0.7,11.7-1.1,11.3,1.1s-9.9,6.6-9.9,6.6
		c6.4,3.6,13.5,5.9,20.9,6.6c12.8,1.5,4.8,9.1,4.8,9.1s-20.6-7.6-36.8-19.5L-671.4,362.4z"/>
</g>
<g class="st9">
	<g class="st9">
		<path class="st1" d="M-736.1,387.3c0,0-2.9,4.8-1.5,5.1c1.5,0.3,16.5-5.9,11.3-0.7c-5.1,5.1-11.3,5.1-8.8,6.6
			c2.6,1.5,9.1,1.5,7,2.9c-2.2,1.5,2.2,8,13.2,21.2s15.7,22.3,27.8,28.5s20.1,6.2,12.8,8s-15,2.9-15.4,6.2c0,0,0.4,2.6-4,4.4
			s-7,1.5-10.2,0c-3.3-1.5-4.4-1.5-5.1-3.3c-0.7-1.8-3.7-9.4-3.7-9.4l-5.2-11.2l-1.7-2.4l-1.5-1.1l-25.6-43.9L-736.1,387.3z"/>
	</g>
</g>
<path class="st10" d="M-624,374.3c-5.5-3.6-48.3-36.9-52.3-38.4s-12,0-12,0s-24.8,3-30,5.1c-0.5,0.2-11.7,6.6-12,7
	c-4,3.3-21.6,11.4-26.4,21.6c-5.4,11.6,41.9,81.4,44.1,87.2c2.2,5.9,13.7,7.3,24.3,5.8s19.9-3.6,27.6-12.4c1.4-1.8,2.6-3.7,3.5-5.7
	c1.1-2.3,1.4-4.9,0.8-7.3c-2.7-11.4-9.7-44.4-14.4-66.1c7.7,5,23.7,15.1,33,18.6c12.4,4.8,21.9,1.5,21.9-2.6
	C-615.9,383.1-618.5,378-624,374.3z"/>
<path class="st4" d="M-750.9,362.2c0,0-4.4,4.8-6.1,7c-9.2,11.8-38.3,49.5-38.6,52.5s1.1,5.1,8.2,7.8c7.1,2.7,54.8-45.1,54.8-45.1"
	/>
<g class="st9">
	<g class="st11">
		<path class="st1" d="M-748.2,361.3l-35.1,49c0,0,3.6,4,8,8s12,6.6,6.2,6.2s-16.8-4.8-16.8-4.8s-3.3,2.6,0.7,5.1
			c4,2.6,4.8,0.7,16.5,6.6c11.7,5.8,30.4,9.6,30.4,9.6l-1.5,3.1l-49.8-12.7c0,0-7.2-3.6-6.2-9.6s17.8-25.3,17.8-25.3l24.1-31.5
			C-753.8,365.1-751.6,361.8-748.2,361.3z"/>
	</g>
</g>
<path class="st10" d="M-750.9,362.2c0,0-4.4,4.8-6.1,7c-9.2,11.8-38.3,49.5-38.6,52.5s1.1,5.1,8.2,7.8c7.1,2.7,54.8-45.1,54.8-45.1"
	/>
<path class="st7" d="M-654.4,360l-16.5,11.1c2.4-0.3,13.8-4.4,13.8-4.4"/>
<path class="st7" d="M-655.1,366.4l3.7-0.7"/>
<path class="st10" d="M-777.3,410.1c-2.5-0.1-5.1,0.4-7.4,1.4"/>
<path class="st7" d="M-741.4,393.6c0,0,9.3-2.8,11.7-4.7"/>
<path class="st7" d="M-727.4,387.9c0,0,1.5-1.3,2.1-1.3"/>
<path class="st10" d="M-670.9,371.1l-1.5-15.5"/>
<path class="st4" d="M-795.7,421.9c0,0-2.1,8.1,11.5,11.5c6.5,1.6,49.4,12,49.4,12s3.8-8.2,1.6-8.2s-41.7-26.3-41.7-26.3"/>
<g class="st9">
	<path class="st1" d="M-748.2,361.3l-35.1,49c0,0,3.6,4,8,8s12,6.6,6.2,6.2s-16.8-4.8-16.8-4.8s-3.3,2.6,0.7,5.1
		c4,2.6,4.8,0.7,16.5,6.6c11.7,5.8,30.4,9.6,30.4,9.6l-1.3,3.2l-50-12.8c0,0-9.5-4.5-6.2-9.6c3.7-5.9,17.8-25.3,17.8-25.3l24.6-31.3
		c0.3-1.1,1-2.2,1.9-2.9C-750.5,361.8-749.4,361.4-748.2,361.3L-748.2,361.3z"/>
</g>
<path class="st10" d="M-795.7,421.9c0,0-2.1,8.1,11.5,11.5c6.5,1.6,49.4,12,49.4,12s3.8-8.2,1.6-8.2s-41.7-26.3-41.7-26.3"/>
<path class="st6" d="M-733.2,437.3c0,0,14.1,6.6,15.2,8.4c1.1,1.8,3.6,11.3,3.6,14.3c0,2.9-0.4,2.9-2.2,2.9s-6.6-7-7.7-8.4
	c-1.1-1.5-3.6-1.5-7-3.6c-0.9-0.6-1.7-1.4-2.4-2.3c-0.6-0.9-1-1.9-1.3-3L-733.2,437.3z"/>
<path class="st10" d="M-739.2,444.1l2.2-6.8"/>
<g class="st12">
	<path class="st1" d="M-706.3,372.1c0,0-22.6-12.8-30.7-11.7c-8.1,1.2-15,2.3-15,2.3l15-10.5C-729.5,355.7-718.7,363.7-706.3,372.1z
		"/>
</g>
<path class="st4" d="M-632.4,386c0,0-3.6,12.4-5.1,19.7c-1.5,7.3-11.7,36.5-11.7,36.5l8.8,5.5c0,0,19.4-40.2,23-49
	c3.7-8.8,2.6-15.4-1.1-19"/>
<path class="st10" d="M-632.4,386c0,0-3.6,12.4-5.1,19.7c-1.5,7.3-11.7,36.5-11.7,36.5l8.8,5.5c0,0,19.4-40.2,23-49
	c3.7-8.8,2.6-15.4-1.1-19"/>
<path d="M-647.6,438.2c0.7,0,9,4.6,9,4.6L-647.6,438.2z"/>
<path class="st4" d="M-705.3,372.1c-2-0.3-12.8-7.4-20.2-13.1s-11.4-6.7-11.4-6.7l-5.1,3.4c-0.8-2.5-0.5-5.1,0.7-7.4
	c2-3.7,9.1-7.4,16.2-10.1c7.1-2.7,15.2-5.1,20.2-5.1c5.1,0,6.4,2,6.4,4.7s0,11.1-1.7,17.5C-701.9,361.7-705.3,372.1-705.3,372.1z"/>
<g class="st9">
	<g class="st9">
		<path class="st1" d="M-708.4,337c0,0-3.1,9.3-6.2,12.1c-2.4,2-5,3.8-7.8,5.3c0,0-1.9-6.5-6.5-6.5c-4.7,0-11.8,3.1-11.8,3.1
			s0-2.5,5.9-5.6l5.9-3.1l13.7-5.3H-708.4z"/>
	</g>
</g>
<path class="st10" d="M-705.3,372.1c-2-0.3-12.8-7.4-20.2-13.1s-11.4-6.7-11.4-6.7l-5.1,3.4c-0.8-2.5-0.5-5.1,0.7-7.4
	c2-3.7,9.1-7.4,16.2-10.1c7.1-2.7,15.2-5.1,20.2-5.1c5.1,0,6.4,2,6.4,4.7s0,11.1-1.7,17.5C-701.9,361.7-705.3,372.1-705.3,372.1z"/>
<path class="st4" d="M-735.2,329.4c4,4.3,6.8,9.6,8.1,15.4c2.1,9.5,15.9,20.6,19.2,20.6s3.1-16.3,2-21.1c-1.1-4.8-5.6-17.5-5.6-17.5
	S-729,318.4-735.2,329.4z"/>
<g class="st9">
	<g class="st9">
		<path class="st1" d="M-708.4,337c0,0-3.1,9.3-6.2,12.1c-2.4,2-5,3.8-7.8,5.3c0,0-1.9-6.5-6.5-6.5c-4.7,0-11.8,3.1-11.8,3.1
			s0-2.5,5.9-5.6l5.9-3.1l13.7-5.3H-708.4z"/>
	</g>
</g>
<path class="st10" d="M-735.2,329.4c4,4.3,6.8,9.6,8.1,15.4c2.1,9.5,15.9,20.6,19.2,20.6s3.1-16.3,2-21.1
	c-1.1-4.8-5.6-17.5-5.6-17.5S-729,318.4-735.2,329.4z"/>
<path class="st4" d="M-746.8,311.7c2.6,7,5.8,13.8,9.5,20.3c5.6,9.1,16.3,14.3,22.2,11.9s10-10.1,8.4-22c-0.3-2.6-2.6-3.7-3.4-6
	c-2.6-8.4-5.3-16.5-6.2-19.6c-1.2-4-10.7-7.9-20.6-5.2C-746.8,293.9-748.4,302.2-746.8,311.7z"/>
<g class="st9">
	<path class="st1" d="M-713.9,304.4c0,0-3.6,2.7-11.7,1.1c-8.1-1.6-13.7-1.2-13.4,0.9s0.9,5,0.9,5s-9.7-8.4-0.9-10.7
		c6.3-1.6,10,0.9,11.6,1.2C-725.8,302.4-713.9,304.4-713.9,304.4z"/>
</g>
<path class="st10" d="M-746.8,311.7c2.6,7,5.8,13.8,9.5,20.3c5.6,9.1,16.3,14.3,22.2,11.9s10-10.1,8.4-22c-0.3-2.6-2.6-3.7-3.4-6
	c-2.6-8.4-5.3-16.5-6.2-19.6c-1.2-4-10.7-7.9-20.6-5.2C-746.8,293.9-748.4,302.2-746.8,311.7z"/>
<path class="st4" d="M-739.6,324.8c0,0-6.3-2.8-6.7,0s2.4,4.8,5.2,6c0.7,0.4,1.5,0.5,2.2,0.5c0.8-0.1,1.5-0.4,2.1-0.9"/>
<path class="st10" d="M-739.6,324.8c0,0-6.3-2.8-6.7,0s2.4,4.8,5.2,6c0.7,0.4,1.5,0.5,2.2,0.5c0.8-0.1,1.5-0.4,2.1-0.9"/>
<path class="st4" d="M-713.7,309.1c0,0-7.1-1.7-4,7.7c0.6,1.9,4.7,4,4.7,4s-0.3,3-2,3.4"/>
<path class="st10" d="M-713.7,309.1c0,0-7.1-1.7-4,7.7c0.6,1.9,4.7,4,4.7,4s-0.3,3-2,3.4"/>
<path class="st4" d="M-718.7,331c0,0-5.1,1-7.1-1.3L-718.7,331z"/>
<path class="st10" d="M-718.7,331c0,0-5.1,1-7.1-1.3"/>
<path class="st4" d="M-726.1,315.2c0,0-3.7-1.3-5.7,0.3c-1.1,0.8-1.9,1.8-2.4,3"/>
<path class="st10" d="M-726.1,315.2c0,0-3.7-1.3-5.7,0.3c-1.1,0.8-1.9,1.8-2.4,3"/>
<path d="M-726.5,323.4c0.6-0.3,0.7-1.4,0.2-2.5s-1.3-1.8-1.9-1.5c-0.6,0.3-0.7,1.4-0.2,2.5S-727.1,323.7-726.5,323.4z"/>
<path d="M-714.4,317.5c0.6-0.3,0.7-1.4,0.2-2.5s-1.3-1.8-1.9-1.5c-0.6,0.3-0.7,1.4-0.2,2.5C-715.8,317.1-714.9,317.8-714.4,317.5z"
	/>
<path d="M-741.4,326.4c0,0,4-2.9,3.3-5.5s-2.2-2.6-0.7-4s2.6-2.2,2.2-4.4s-6.2-5.9-4.4-8c1.8-2.2,1.1-4.8,16.1-1.1
	c15,3.7,24.5-2.2,20.1-7.7s-8-6.2-8-6.2s8.4-3.6,1.5-7.3c-7-3.7-22.7-3.6-31.5,3.3s-7,12.8-7,12.8s-4.8,0.7-5.1,8
	C-755.3,313.6-741.4,326.4-741.4,326.4z"/>
<path class="st8" d="M-741.5,301.4c0,0,1.2-3.7,7.4-3.7s11.8,5.3,20.2,3.4s3.7-6.8,3.7-6.8"/>
<path class="st8" d="M-744.3,300.5c0,0,0.6-7.7,7.4-9.4c6.8-1.7,15.8,1.7,18.3,0.7"/>
<path class="st8" d="M-747.7,300.8c0,0-3.7,0-4,5c-0.2,1.3,0,2.7,0.5,3.9s1.3,2.3,2.3,3.2"/>
<path class="st8" d="M-744.3,303.9c-0.5,0.2-1,0.5-1.4,0.9s-0.7,0.9-0.9,1.4s-0.3,1.1-0.3,1.7s0.2,1.1,0.5,1.6"/>
<path class="st8" d="M-747.1,313.8l1.6,2.2"/>
<rect x="-838.3" y="-83.3" class="st15" width="77.1" height="56.3"/>
<rect x="-838.3" y="-21.7" class="st16" width="77.1" height="56.3"/>
<rect x="-520.4" y="-390.5" class="st17" width="77.1" height="56.3"/>
<rect x="-520.4" y="-330.3" class="st2" width="77.1" height="56.3"/>
<linearGradient id="SVGID_2_" gradientUnits="userSpaceOnUse" x1="-615.1146" y1="-85.6286" x2="-464.686" y2="-85.6286">
	<stop  offset="0" style="stop-color:#F2293A"/>
	<stop  offset="0.9723" style="stop-color:#4B6A8A"/>
	<stop  offset="1" style="stop-color:#466C8C"/>
</linearGradient>
<rect x="-615.1" y="-112" class="st18" width="150.4" height="52.7"/>
</svg>
